<?xml version="1.0" standalone="no"?>
<!DOCTYPE svg PUBLIC "-//W3C//DTD SVG 20010904//EN"
 "http://www.w3.org/TR/2001/REC-SVG-20010904/DTD/svg10.dtd">
<svg version="1.0" xmlns="http://www.w3.org/2000/svg"
 width="648.000000pt" height="320.000000pt" viewBox="0 0 648.000000 320.000000"
 preserveAspectRatio="xMidYMid meet">

<g transform="translate(0.000000,320.000000) scale(0.100000,-0.100000)"
fill="#000000" stroke="none">
<path d="M634 2163 c8 -70 61 -181 116 -245 49 -57 141 -119 217 -148 52 -19
281 -56 566 -91 54 -6 96 -13 94 -16 -3 -2 -104 3 -226 11 -122 9 -226 16
-231 16 -25 0 34 -135 90 -205 42 -53 142 -122 203 -140 27 -8 89 -17 138 -21
48 -4 86 -11 83 -16 -10 -15 55 -114 106 -162 28 -26 76 -59 108 -74 l57 -27
260 2 c146 1 245 -2 225 -7 -19 -4 -92 -18 -162 -30 -70 -13 -132 -26 -138
-30 -17 -11 23 -83 74 -134 23 -24 69 -56 102 -72 53 -26 69 -29 154 -28 83 0
614 75 627 87 2 3 -4 32 -13 66 -16 57 -20 62 -56 73 -53 16 -113 83 -132 149
-20 65 -20 161 -1 299 26 188 15 257 -52 324 -56 55 -108 75 -300 111 -98 18
-333 63 -523 100 -190 36 -412 79 -495 95 -394 74 -689 131 -779 150 -54 11
-103 20 -108 20 -7 0 -8 -20 -4 -57z m551 -84 c308 -59 567 -109 591 -114 14
-3 27 -20 37 -47 22 -57 68 -111 111 -132 18 -9 168 -43 331 -75 267 -54 302
-63 333 -89 20 -15 38 -34 40 -40 7 -21 11 -21 -583 63 -132 19 -328 46 -435
60 -554 74 -600 82 -680 122 -125 63 -233 196 -255 315 l-7 35 154 -29 c84
-16 248 -47 363 -69z m740 -139 c22 -5 206 -41 409 -79 202 -39 387 -79 410
-89 53 -24 112 -90 126 -142 8 -31 7 -69 -6 -168 -24 -178 -24 -293 0 -361 23
-66 93 -145 142 -161 26 -9 34 -17 34 -36 0 -21 -3 -24 -27 -18 -59 13 -134
54 -175 96 -85 86 -128 221 -128 404 0 125 -13 173 -62 229 -48 54 -75 70
-148 84 -287 55 -549 115 -576 132 -26 16 -84 96 -84 115 0 7 44 4 85 -6z
m-530 -301 c66 -6 373 -27 683 -48 349 -23 567 -42 574 -49 6 -6 13 -56 16
-112 l5 -100 -159 5 c-88 3 -341 10 -564 16 -223 6 -423 15 -445 21 -106 27
-204 105 -263 210 -17 32 -32 60 -32 63 0 8 51 6 185 -6z m1280 -376 c9 -68
23 -138 30 -155 6 -15 -11 -17 -187 -20 -106 -2 -274 -3 -373 -3 -176 0 -181
1 -236 27 -54 27 -169 134 -169 157 0 6 15 12 33 12 101 4 586 16 729 17 l167
2 6 -37z m89 -258 c31 -50 90 -102 150 -132 l39 -20 -32 -6 c-17 -4 -120 -21
-229 -38 -216 -34 -280 -34 -356 -1 -48 22 -162 131 -148 143 6 6 153 34 457
88 85 15 88 14 119 -34z"/>
<path d="M5765 2175 c-248 -49 -541 -106 -1010 -195 -176 -33 -387 -74 -470
-90 -82 -16 -193 -37 -245 -46 -165 -29 -251 -83 -284 -180 -20 -58 -20 -119
-1 -249 37 -256 -2 -389 -129 -441 -41 -17 -45 -22 -60 -77 -9 -33 -15 -62
-12 -65 14 -13 606 -93 662 -89 80 6 160 43 218 100 52 53 94 126 77 137 -7 3
-79 19 -161 35 -83 15 -150 30 -150 32 0 2 111 2 248 1 l247 -3 66 31 c80 38
158 115 190 188 l24 53 100 10 c150 14 246 66 333 180 32 42 88 170 79 179 -4
4 -243 -10 -387 -22 -144 -12 -63 5 170 35 399 53 436 63 548 145 105 78 188
211 199 321 5 49 4 55 -13 54 -10 0 -118 -20 -239 -44z m211 -27 c-19 -97 -98
-211 -195 -283 -96 -70 -90 -68 -1036 -200 -397 -56 -693 -95 -712 -95 -25 0
-13 19 32 50 47 32 92 43 512 127 73 14 146 34 162 44 37 22 98 104 106 142 4
17 15 29 28 32 12 2 92 18 177 34 510 98 745 144 820 160 119 26 114 26 106
-11z m-1166 -201 c0 -24 -58 -101 -89 -120 -16 -9 -151 -42 -299 -71 -348 -70
-345 -70 -399 -119 -66 -60 -75 -89 -83 -262 -8 -159 -24 -234 -66 -309 -51
-91 -145 -161 -243 -181 -29 -6 -33 -5 -28 10 4 9 7 20 7 25 0 5 15 13 34 20
42 13 100 69 125 119 41 79 46 145 26 307 -31 256 -26 295 53 366 50 45 92 58
337 104 162 30 613 119 623 123 1 1 2 -5 2 -12z m630 -305 c0 -5 -16 -35 -35
-68 -59 -100 -157 -176 -260 -202 -22 -6 -233 -15 -470 -21 -236 -6 -490 -13
-562 -17 l-133 -5 0 73 c0 40 5 90 10 110 13 46 -21 41 500 74 223 14 504 34
625 43 256 21 325 24 325 13z m-621 -361 l104 -6 -50 -60 c-34 -41 -71 -72
-114 -95 l-64 -35 -370 3 c-203 2 -373 6 -377 8 -4 3 0 26 7 52 8 26 15 61 15
77 0 17 3 40 6 53 l7 23 366 -7 c201 -3 413 -9 470 -13z m-581 -283 c127 -23
232 -45 232 -51 0 -5 -28 -37 -62 -71 -49 -48 -75 -65 -119 -79 -76 -23 -123
-22 -348 13 -107 17 -208 30 -223 30 -40 0 -35 12 15 33 50 20 114 78 153 137
33 50 1 51 352 -12z"/>
<path d="M3275 2068 c-3 -7 -65 -187 -138 -400 l-134 -388 144 0 c78 0 143 -3
143 -6 0 -9 -78 -279 -105 -364 -59 -188 -137 -451 -134 -455 2 -2 65 96 139
218 272 446 314 515 406 663 52 83 94 154 94 157 0 4 -63 7 -140 7 -77 0 -140
1 -140 3 0 2 51 111 113 242 63 132 123 261 135 288 l21 47 -200 0 c-151 0
-201 -3 -204 -12z m345 -24 c0 -3 -47 -105 -104 -227 -57 -122 -117 -249 -132
-282 -15 -33 -30 -63 -32 -67 -2 -4 58 -9 133 -10 l136 -3 -47 -75 c-45 -72
-257 -421 -354 -583 -59 -97 -62 -100 -44 -40 53 172 164 543 164 548 0 3 -63
5 -140 5 -101 0 -140 3 -140 12 0 10 207 616 239 701 l11 27 155 0 c85 0 155
-2 155 -6z"/>
</g>
</svg>
